<?xml version="1.0" encoding="UTF-8"?>
<svg xmlns="http://www.w3.org/2000/svg" id="a" width="213.97" height="46.77" viewBox="0 0 213.97 46.77">
  <polygon points="9.27 25.73 9.27 46.19 0 46.19 0 11.06 11.97 11.06 22.93 27.25 22.93 11.06 33.05 11.06 33.05 30.12 22.59 44.11 9.27 25.73"></polygon>
  <rect x="62.38" y="11.06" width="9.27" height="35.13"></rect>
  <polygon points="48.57 46.19 59.27 46.19 59.27 0 24.7 46.18 35.67 46.18 50.16 26.86 50.16 37.42 42.74 37.48 48.57 46.19" fill="#cf3339"></polygon>
  <path d="m75.25,16.7h6.48v11.32h11.94v-11.32h6.48v29.49h-6.48v-12.72h-11.94v12.72h-6.48v-29.49Z" fill="#474747"></path>
  <path d="m113.12,24.26c6.73,0,11.07,4.46,11.07,11.27s-4.34,11.23-11.07,11.23-11.03-4.46-11.03-11.23,4.34-11.27,11.03-11.27Zm0,18.09c4.01,0,5.2-3.43,5.2-6.81s-1.2-6.86-5.2-6.86-5.16,3.43-5.16,6.86,1.2,6.81,5.16,6.81Z" fill="#474747"></path>
  <path d="m125.51,24.84h5.58v3.96h.08c1.07-2.68,3.96-4.54,6.81-4.54.41,0,.91.08,1.28.21v5.45c-.54-.12-1.4-.21-2.11-.21-4.29,0-5.78,3.1-5.78,6.86v9.62h-5.86v-21.35Z" fill="#474747"></path>
  <path d="m146.78,21.54h-5.86v-4.83h5.86v4.83Zm-5.86,3.3h5.86v21.35h-5.86v-21.35Z" fill="#474747"></path>
  <path d="m149.25,41.77l11.11-12.51h-10.28v-4.42h18.01v4.42l-11.11,12.51h11.89v4.42h-19.62v-4.42Z" fill="#474747"></path>
  <path d="m180.72,24.26c6.73,0,11.07,4.46,11.07,11.27s-4.34,11.23-11.07,11.23-11.03-4.46-11.03-11.23,4.34-11.27,11.03-11.27Zm0,18.09c4.01,0,5.2-3.43,5.2-6.81s-1.2-6.86-5.2-6.86-5.16,3.43-5.16,6.86,1.2,6.81,5.16,6.81Z" fill="#474747"></path>
  <path d="m193.94,24.84h5.57v2.97h.12c1.49-2.4,4.05-3.55,6.52-3.55,6.24,0,7.81,3.51,7.81,8.8v13.13h-5.86v-12.06c0-3.51-1.03-5.24-3.76-5.24-3.18,0-4.54,1.78-4.54,6.11v11.19h-5.86v-21.35Z" fill="#474747"></path>
</svg>
